<svg width="2" height="3" viewBox="0 0 2 3" fill="none" xmlns="http://www.w3.org/2000/svg">
<path d="M1.40478 0.112289C1.39615 0.109611 1.38782 0.106039 1.37829 0.106039H0.466871C0.443958 0.106039 0.423724 0.115859 0.406168 0.129844C0.17675 0.241429 0 0.708598 0 1.44654C0 2.11308 0.183296 2.5981 0.37671 2.75521C0.394563 2.79092 0.460026 2.8174 0.499304 2.8174L1.36282 2.81591C1.26046 2.55138 1.19143 2.06636 1.19143 1.51082C1.19143 0.882073 1.27921 0.342599 1.40478 0.112289Z" fill="url(#paint0_linear_2_552)"/>
<path d="M1.35407 2.81354C1.61208 2.81354 1.82124 2.20818 1.82124 1.46144C1.82124 0.714686 1.61208 0.109327 1.35407 0.109327C1.09606 0.109327 0.886904 0.714686 0.886904 1.46144C0.886904 2.20818 1.09606 2.81354 1.35407 2.81354Z" fill="url(#paint1_linear_2_552)"/>
<path opacity="0.0625" d="M1.17483 2.99999C1.55921 2.99999 1.87082 2.32842 1.87082 1.5C1.87082 0.671571 1.55921 0 1.17483 0C0.790441 0 0.478835 0.671571 0.478835 1.5C0.478835 2.32842 0.790441 2.99999 1.17483 2.99999Z" fill="url(#paint2_linear_2_552)"/>
<path opacity="0.125" d="M1.18405 2.98467C1.56104 2.98467 1.86665 2.31936 1.86665 1.49865C1.86665 0.677953 1.56104 0.0126446 1.18405 0.0126446C0.807057 0.0126446 0.501446 0.677953 0.501446 1.49865C0.501446 2.31936 0.807057 2.98467 1.18405 2.98467Z" fill="url(#paint3_linear_2_552)"/>
<path opacity="0.1875" d="M1.19356 2.96934C1.56315 2.96934 1.86277 2.31029 1.86277 1.49731C1.86277 0.684337 1.56315 0.0252893 1.19356 0.0252893C0.823962 0.0252893 0.524346 0.684337 0.524346 1.49731C0.524346 2.31029 0.823962 2.96934 1.19356 2.96934Z" fill="url(#paint4_linear_2_552)"/>
<path opacity="0.25" d="M1.20279 2.9543C1.56482 2.9543 1.85831 2.30138 1.85831 1.49597C1.85831 0.690549 1.56482 0.0376288 1.20279 0.0376288C0.84075 0.0376288 0.547262 0.690549 0.547262 1.49597C0.547262 2.30138 0.84075 2.9543 1.20279 2.9543Z" fill="url(#paint5_linear_2_552)"/>
<path opacity="0.3125" d="M1.2126 2.93911C1.56724 2.93911 1.85473 2.29245 1.85473 1.49476C1.85473 0.697067 1.56724 0.0504091 1.2126 0.0504091C0.857959 0.0504091 0.570466 0.697067 0.570466 1.49476C0.570466 2.29245 0.857959 2.93911 1.2126 2.93911Z" fill="url(#paint6_linear_2_552)"/>
<path opacity="0.375" d="M1.22212 2.92396C1.5692 2.92396 1.85056 2.28356 1.85056 1.49359C1.85056 0.70362 1.5692 0.0632232 1.22212 0.0632232C0.875035 0.0632232 0.593671 0.70362 0.593671 1.49359C0.593671 2.28356 0.875035 2.92396 1.22212 2.92396Z" fill="url(#paint7_linear_2_552)"/>
<path opacity="0.4375" d="M1.23164 2.9089C1.57133 2.9089 1.8467 2.27477 1.8467 1.49252C1.8467 0.710275 1.57133 0.076139 1.23164 0.076139C0.891957 0.076139 0.616587 0.710275 0.616587 1.49252C0.616587 2.27477 0.891957 2.9089 1.23164 2.9089Z" fill="url(#paint8_linear_2_552)"/>
<path opacity="0.5" d="M1.24057 2.89358C1.57269 2.89358 1.84193 2.2657 1.84193 1.49118C1.84193 0.716657 1.57269 0.0887837 1.24057 0.0887837C0.90844 0.0887837 0.639198 0.716657 0.639198 1.49118C0.639198 2.2657 0.90844 2.89358 1.24057 2.89358Z" fill="url(#paint9_linear_2_552)"/>
<path opacity="0.5625" d="M1.25038 2.87871C1.57511 2.87871 1.83836 2.25696 1.83836 1.49C1.83836 0.723039 1.57511 0.101293 1.25038 0.101293C0.925649 0.101293 0.662403 0.723039 0.662403 1.49C0.662403 2.25696 0.925649 2.87871 1.25038 2.87871Z" fill="url(#paint10_linear_2_552)"/>
<path opacity="0.625" d="M1.2596 2.86339C1.57694 2.86339 1.83419 2.2479 1.83419 1.48866C1.83419 0.729423 1.57694 0.113937 1.2596 0.113937C0.942265 0.113937 0.685014 0.729423 0.685014 1.48866C0.685014 2.2479 0.942265 2.86339 1.2596 2.86339Z" fill="url(#paint11_linear_2_552)"/>
<path opacity="0.6875" d="M1.26912 2.84806C1.57889 2.84806 1.83002 2.23884 1.83002 1.48732C1.83002 0.735807 1.57889 0.126582 1.26912 0.126582C0.959342 0.126582 0.708218 0.735807 0.708218 1.48732C0.708218 2.23884 0.959342 2.84806 1.26912 2.84806Z" fill="url(#paint12_linear_2_552)"/>
<path opacity="0.75" d="M1.27834 2.83287C1.58072 2.83287 1.82585 2.22991 1.82585 1.48612C1.82585 0.742325 1.58072 0.139362 1.27834 0.139362C0.975958 0.139362 0.73083 0.742325 0.73083 1.48612C0.73083 2.22991 0.975958 2.83287 1.27834 2.83287Z" fill="url(#paint13_linear_2_552)"/>
<path opacity="0.8125" d="M1.28816 2.81785C1.58298 2.81785 1.82198 2.22115 1.82198 1.48508C1.82198 0.749014 1.58298 0.152312 1.28816 0.152312C0.993339 0.152312 0.754339 0.749014 0.754339 1.48508C0.754339 2.22115 0.993339 2.81785 1.28816 2.81785Z" fill="url(#paint14_linear_2_552)"/>
<path opacity="0.875" d="M1.29767 2.80252C1.5851 2.80252 1.8181 2.21208 1.8181 1.48374C1.8181 0.755395 1.5851 0.164957 1.29767 0.164957C1.01024 0.164957 0.777239 0.755395 0.777239 1.48374C0.777239 2.21208 1.01024 2.80252 1.29767 2.80252Z" fill="url(#paint15_linear_2_552)"/>
<path opacity="0.9375" d="M1.3072 2.78765C1.58723 2.78765 1.81424 2.20334 1.81424 1.48256C1.81424 0.761775 1.58723 0.177466 1.3072 0.177466C1.02716 0.177466 0.800155 0.761775 0.800155 1.48256C0.800155 2.20334 1.02716 2.78765 1.3072 2.78765Z" fill="url(#paint16_linear_2_552)"/>
<path d="M1.31612 2.77233C1.58859 2.77233 1.80947 2.19428 1.80947 1.48122C1.80947 0.768159 1.58859 0.19011 1.31612 0.19011C1.04365 0.19011 0.822766 0.768159 0.822766 1.48122C0.822766 2.19428 1.04365 2.77233 1.31612 2.77233Z" fill="url(#paint17_linear_2_552)"/>
<defs>
<linearGradient id="paint0_linear_2_552" x1="0.78151" y1="-0.041759" x2="0.625857" y2="3.26156" gradientUnits="userSpaceOnUse">
<stop stop-color="#383838"/>
<stop offset="0.0357" stop-color="#4B4B4B"/>
<stop offset="0.1078" stop-color="#7B7B7B"/>
<stop offset="0.2088" stop-color="#C7C7C7"/>
<stop offset="0.2181" stop-color="#CFCFCF"/>
<stop offset="0.2786" stop-color="#B6B6B6"/>
<stop offset="0.3777" stop-color="#878787"/>
<stop offset="0.462" stop-color="#636363"/>
<stop offset="0.5633" stop-color="#3E3E3E"/>
<stop offset="0.6452" stop-color="#272727"/>
<stop offset="0.6968" stop-color="#1F1F1F"/>
<stop offset="0.748" stop-color="#232323"/>
<stop offset="0.8076" stop-color="#323232"/>
<stop offset="0.8714" stop-color="#494949"/>
<stop offset="0.9376" stop-color="#696969"/>
<stop offset="1" stop-color="#8F8F8F"/>
</linearGradient>
<linearGradient id="paint1_linear_2_552" x1="2.77048" y1="2.66923" x2="0.0984622" y2="0.391443" gradientUnits="userSpaceOnUse">
<stop stop-color="#383838"/>
<stop offset="4.90505e-05" stop-color="#3B3B3B"/>
<stop offset="0.0011" stop-color="#737373"/>
<stop offset="0.0021" stop-color="#A1A1A1"/>
<stop offset="0.003" stop-color="#C6C6C6"/>
<stop offset="0.0039" stop-color="#E0E0E0"/>
<stop offset="0.0047" stop-color="#EFEFEF"/>
<stop offset="0.0053" stop-color="#F5F5F5"/>
<stop offset="0.0328" stop-color="#DDDDDD"/>
<stop offset="0.0908" stop-color="#9F9F9F"/>
<stop offset="0.1117" stop-color="#878787"/>
<stop offset="0.6968" stop-color="#1F1F1F"/>
<stop offset="0.748" stop-color="#232323"/>
<stop offset="0.8076" stop-color="#323232"/>
<stop offset="0.8714" stop-color="#494949"/>
<stop offset="0.9376" stop-color="#696969"/>
<stop offset="1" stop-color="#8F8F8F"/>
</linearGradient>
<linearGradient id="paint2_linear_2_552" x1="2.83348" y1="2.91376" x2="-0.29476" y2="0.247064" gradientUnits="userSpaceOnUse">
<stop stop-color="#E9E9E9"/>
<stop offset="0.081" stop-color="#EFEFEF"/>
<stop offset="0.2181" stop-color="#F5F5F5"/>
<stop offset="0.4468" stop-color="#EEEEEE"/>
<stop offset="0.6968" stop-color="#EEEEEE"/>
<stop offset="1" stop-color="#EEEEEE"/>
</linearGradient>
<linearGradient id="paint3_linear_2_552" x1="2.82339" y1="2.89596" x2="-0.268577" y2="0.260184" gradientUnits="userSpaceOnUse">
<stop stop-color="#DDDDDD"/>
<stop offset="0.0141" stop-color="#E0E0E0"/>
<stop offset="0.128" stop-color="#EFEFEF"/>
<stop offset="0.2181" stop-color="#F5F5F5"/>
<stop offset="0.4468" stop-color="#E7E7E7"/>
<stop offset="0.6968" stop-color="#E7E7E7"/>
<stop offset="1" stop-color="#E8E8E8"/>
</linearGradient>
<linearGradient id="paint4_linear_2_552" x1="2.81362" y1="2.8782" x2="-0.242165" y2="0.273303" gradientUnits="userSpaceOnUse">
<stop stop-color="#D1D1D1"/>
<stop offset="0.0585" stop-color="#E0E0E0"/>
<stop offset="0.1476" stop-color="#EFEFEF"/>
<stop offset="0.2181" stop-color="#F5F5F5"/>
<stop offset="0.4468" stop-color="#E0E0E0"/>
<stop offset="0.6968" stop-color="#E0E0E0"/>
<stop offset="1" stop-color="#E2E2E2"/>
</linearGradient>
<linearGradient id="paint5_linear_2_552" x1="2.80389" y1="2.86075" x2="-0.215738" y2="0.286654" gradientUnits="userSpaceOnUse">
<stop stop-color="#C6C6C6"/>
<stop offset="0.000655729" stop-color="#C6C6C6"/>
<stop offset="0.0839" stop-color="#E0E0E0"/>
<stop offset="0.1589" stop-color="#EFEFEF"/>
<stop offset="0.2181" stop-color="#F5F5F5"/>
<stop offset="0.4214" stop-color="#DDDDDD"/>
<stop offset="0.4468" stop-color="#D9D9D9"/>
<stop offset="0.6968" stop-color="#D9D9D9"/>
<stop offset="1" stop-color="#DBDBDB"/>
</linearGradient>
<linearGradient id="paint6_linear_2_552" x1="2.79448" y1="2.84321" x2="-0.189054" y2="0.299853" gradientUnits="userSpaceOnUse">
<stop stop-color="#BABABA"/>
<stop offset="0.0282" stop-color="#C6C6C6"/>
<stop offset="0.1008" stop-color="#E0E0E0"/>
<stop offset="0.1663" stop-color="#EFEFEF"/>
<stop offset="0.2181" stop-color="#F5F5F5"/>
<stop offset="0.3846" stop-color="#DDDDDD"/>
<stop offset="0.4468" stop-color="#D3D3D3"/>
<stop offset="0.6968" stop-color="#D2D2D2"/>
<stop offset="1" stop-color="#D5D5D5"/>
</linearGradient>
<linearGradient id="paint7_linear_2_552" x1="2.78481" y1="2.8257" x2="-0.162694" y2="0.313053" gradientUnits="userSpaceOnUse">
<stop stop-color="#AEAEAE"/>
<stop offset="0.048" stop-color="#C6C6C6"/>
<stop offset="0.1131" stop-color="#E0E0E0"/>
<stop offset="0.1718" stop-color="#EFEFEF"/>
<stop offset="0.2181" stop-color="#F5F5F5"/>
<stop offset="0.3596" stop-color="#DDDDDD"/>
<stop offset="0.4468" stop-color="#CCCCCC"/>
<stop offset="0.6968" stop-color="#CBCBCB"/>
<stop offset="1" stop-color="#CFCFCF"/>
</linearGradient>
<linearGradient id="paint8_linear_2_552" x1="2.7752" y1="2.80833" x2="-0.136385" y2="0.326325" gradientUnits="userSpaceOnUse">
<stop stop-color="#A2A2A2"/>
<stop offset="0.0629" stop-color="#C6C6C6"/>
<stop offset="0.1224" stop-color="#E0E0E0"/>
<stop offset="0.1759" stop-color="#EFEFEF"/>
<stop offset="0.2181" stop-color="#F5F5F5"/>
<stop offset="0.3414" stop-color="#DDDDDD"/>
<stop offset="0.4468" stop-color="#C5C5C5"/>
<stop offset="0.6968" stop-color="#C4C4C4"/>
<stop offset="1" stop-color="#C8C8C8"/>
</linearGradient>
<linearGradient id="paint9_linear_2_552" x1="2.76532" y1="2.79071" x2="-0.110383" y2="0.339328" gradientUnits="userSpaceOnUse">
<stop stop-color="#969696"/>
<stop offset="0.0164" stop-color="#A2A2A2"/>
<stop offset="0.0749" stop-color="#C6C6C6"/>
<stop offset="0.1298" stop-color="#E0E0E0"/>
<stop offset="0.1792" stop-color="#EFEFEF"/>
<stop offset="0.2181" stop-color="#F5F5F5"/>
<stop offset="0.3278" stop-color="#DDDDDD"/>
<stop offset="0.4468" stop-color="#BEBEBE"/>
<stop offset="0.6968" stop-color="#BDBDBD"/>
<stop offset="0.9909" stop-color="#C2C2C2"/>
<stop offset="1" stop-color="#C2C2C2"/>
</linearGradient>
<linearGradient id="paint10_linear_2_552" x1="2.75606" y1="2.77332" x2="-0.083846" y2="0.352433" gradientUnits="userSpaceOnUse">
<stop stop-color="#8B8B8B"/>
<stop offset="0.0303" stop-color="#A2A2A2"/>
<stop offset="0.0848" stop-color="#C6C6C6"/>
<stop offset="0.1359" stop-color="#E0E0E0"/>
<stop offset="0.1818" stop-color="#EFEFEF"/>
<stop offset="0.2181" stop-color="#F5F5F5"/>
<stop offset="0.3169" stop-color="#DDDDDD"/>
<stop offset="0.4468" stop-color="#B7B7B7"/>
<stop offset="0.6968" stop-color="#B6B6B6"/>
<stop offset="0.972" stop-color="#BBBBBB"/>
<stop offset="1" stop-color="#BBBBBB"/>
</linearGradient>
<linearGradient id="paint11_linear_2_552" x1="2.74624" y1="2.75576" x2="-0.0579336" y2="0.365347" gradientUnits="userSpaceOnUse">
<stop stop-color="#7F7F7F"/>
<stop offset="0.0419" stop-color="#A2A2A2"/>
<stop offset="0.093" stop-color="#C6C6C6"/>
<stop offset="0.141" stop-color="#E0E0E0"/>
<stop offset="0.1841" stop-color="#EFEFEF"/>
<stop offset="0.2181" stop-color="#F5F5F5"/>
<stop offset="0.308" stop-color="#DDDDDD"/>
<stop offset="0.4468" stop-color="#B0B0B0"/>
<stop offset="0.6968" stop-color="#AFAFAF"/>
<stop offset="0.9561" stop-color="#B4B4B4"/>
<stop offset="1" stop-color="#B5B5B5"/>
</linearGradient>
<linearGradient id="paint12_linear_2_552" x1="2.73677" y1="2.73856" x2="-0.0317529" y2="0.378527" gradientUnits="userSpaceOnUse">
<stop stop-color="#737373"/>
<stop offset="0.000506787" stop-color="#747474"/>
<stop offset="0.0513" stop-color="#A2A2A2"/>
<stop offset="0.1" stop-color="#C6C6C6"/>
<stop offset="0.1453" stop-color="#E0E0E0"/>
<stop offset="0.186" stop-color="#EFEFEF"/>
<stop offset="0.2181" stop-color="#F5F5F5"/>
<stop offset="0.3007" stop-color="#DDDDDD"/>
<stop offset="0.4468" stop-color="#A9A9A9"/>
<stop offset="0.6968" stop-color="#A8A8A8"/>
<stop offset="0.9425" stop-color="#ACACAC"/>
<stop offset="1" stop-color="#AFAFAF"/>
</linearGradient>
<linearGradient id="paint13_linear_2_552" x1="2.72733" y1="2.72123" x2="-0.00560018" y2="0.391515" gradientUnits="userSpaceOnUse">
<stop stop-color="#676767"/>
<stop offset="0.0117" stop-color="#747474"/>
<stop offset="0.0599" stop-color="#A2A2A2"/>
<stop offset="0.1061" stop-color="#C6C6C6"/>
<stop offset="0.149" stop-color="#E0E0E0"/>
<stop offset="0.1876" stop-color="#EFEFEF"/>
<stop offset="0.2181" stop-color="#F5F5F5"/>
<stop offset="0.2946" stop-color="#DDDDDD"/>
<stop offset="0.4468" stop-color="#A3A3A3"/>
<stop offset="0.6968" stop-color="#A1A1A1"/>
<stop offset="0.9306" stop-color="#A5A5A5"/>
<stop offset="1" stop-color="#A8A8A8"/>
</linearGradient>
<linearGradient id="paint14_linear_2_552" x1="2.71826" y1="2.70409" x2="0.0207962" y2="0.404642" gradientUnits="userSpaceOnUse">
<stop stop-color="#5B5B5B"/>
<stop offset="0.0214" stop-color="#747474"/>
<stop offset="0.0674" stop-color="#A1A1A1"/>
<stop offset="0.1114" stop-color="#C6C6C6"/>
<stop offset="0.1523" stop-color="#E0E0E0"/>
<stop offset="0.1891" stop-color="#EFEFEF"/>
<stop offset="0.2181" stop-color="#F5F5F5"/>
<stop offset="0.2893" stop-color="#DDDDDD"/>
<stop offset="0.4392" stop-color="#9F9F9F"/>
<stop offset="0.4468" stop-color="#9C9C9C"/>
<stop offset="0.6968" stop-color="#9A9A9A"/>
<stop offset="0.9203" stop-color="#9E9E9E"/>
<stop offset="1" stop-color="#A2A2A2"/>
</linearGradient>
<linearGradient id="paint15_linear_2_552" x1="2.7089" y1="2.68671" x2="0.0468498" y2="0.417406" gradientUnits="userSpaceOnUse">
<stop stop-color="#505050"/>
<stop offset="0.0301" stop-color="#747474"/>
<stop offset="0.074" stop-color="#A1A1A1"/>
<stop offset="0.116" stop-color="#C6C6C6"/>
<stop offset="0.1552" stop-color="#E0E0E0"/>
<stop offset="0.1903" stop-color="#EFEFEF"/>
<stop offset="0.2181" stop-color="#F5F5F5"/>
<stop offset="0.2847" stop-color="#DDDDDD"/>
<stop offset="0.425" stop-color="#9F9F9F"/>
<stop offset="0.4468" stop-color="#959595"/>
<stop offset="0.6968" stop-color="#939393"/>
<stop offset="0.9111" stop-color="#979797"/>
<stop offset="1" stop-color="#9C9C9C"/>
</linearGradient>
<linearGradient id="paint16_linear_2_552" x1="2.69962" y1="2.66952" x2="0.0728914" y2="0.43033" gradientUnits="userSpaceOnUse">
<stop stop-color="#444444"/>
<stop offset="0.0378" stop-color="#747474"/>
<stop offset="0.0798" stop-color="#A1A1A1"/>
<stop offset="0.1202" stop-color="#C6C6C6"/>
<stop offset="0.1578" stop-color="#E0E0E0"/>
<stop offset="0.1915" stop-color="#EFEFEF"/>
<stop offset="0.2181" stop-color="#F5F5F5"/>
<stop offset="0.2808" stop-color="#DDDDDD"/>
<stop offset="0.4127" stop-color="#9F9F9F"/>
<stop offset="0.4468" stop-color="#8E8E8E"/>
<stop offset="0.6968" stop-color="#8C8C8C"/>
<stop offset="0.9029" stop-color="#909090"/>
<stop offset="1" stop-color="#959595"/>
</linearGradient>
<linearGradient id="paint17_linear_2_552" x1="2.6901" y1="2.65221" x2="0.0985658" y2="0.443036" gradientUnits="userSpaceOnUse">
<stop stop-color="#383838"/>
<stop offset="0.002" stop-color="#3B3B3B"/>
<stop offset="0.0442" stop-color="#737373"/>
<stop offset="0.0851" stop-color="#A1A1A1"/>
<stop offset="0.1239" stop-color="#C6C6C6"/>
<stop offset="0.1601" stop-color="#E0E0E0"/>
<stop offset="0.1925" stop-color="#EFEFEF"/>
<stop offset="0.2181" stop-color="#F5F5F5"/>
<stop offset="0.2773" stop-color="#DDDDDD"/>
<stop offset="0.4018" stop-color="#9F9F9F"/>
<stop offset="0.4468" stop-color="#878787"/>
<stop offset="0.6968" stop-color="#858585"/>
<stop offset="0.8955" stop-color="#898989"/>
<stop offset="1" stop-color="#8F8F8F"/>
</linearGradient>
</defs>
</svg>
