<svg width="12" height="15" viewBox="0 0 12 15" fill="none" xmlns="http://www.w3.org/2000/svg">
<path d="M5.93562 8.0215C7.0877 8.0215 8.02165 7.08755 8.02165 5.93546C8.02165 4.78338 7.0877 3.84943 5.93562 3.84943C4.78354 3.84943 3.84959 4.78338 3.84959 5.93546C3.84959 7.08755 4.78354 8.0215 5.93562 8.0215Z" stroke="#FF5B3F" stroke-width="1.40948" stroke-linecap="round" stroke-linejoin="round"/>
<path d="M11.1506 5.93548C11.1506 10.629 5.93548 14.2796 5.93548 14.2796C5.93548 14.2796 0.720395 10.629 0.720395 5.93548C0.720395 4.55235 1.26984 3.22587 2.24786 2.24786C3.22587 1.26984 4.55235 0.720395 5.93548 0.720395C7.3186 0.720395 8.64508 1.26984 9.62309 2.24786C10.6011 3.22587 11.1506 4.55235 11.1506 5.93548Z" stroke="#FF5B3F" stroke-width="1.40948" stroke-linecap="round" stroke-linejoin="round"/>
</svg>
