<svg width="10" height="10" viewBox="0 0 10 10" fill="none" xmlns="http://www.w3.org/2000/svg">
<path opacity="0.58" d="M6.19486 5.01207L9.76571 1.44123C9.91744 1.28318 10.0012 1.07195 9.99894 0.852863C9.9967 0.633778 9.90868 0.424298 9.75375 0.269374C9.59883 0.11445 9.38935 0.0264268 9.17027 0.0241925C8.95118 0.0219582 8.73995 0.105691 8.5819 0.257424L5.01207 3.82827L1.44123 0.257424C1.36409 0.177071 1.27169 0.112919 1.16945 0.0687243C1.06721 0.0245294 0.957171 0.00117945 0.845791 4.35406e-05C0.73441 -0.00109237 0.623921 0.0200079 0.520797 0.0621084C0.417674 0.104209 0.323987 0.166464 0.245225 0.245226C0.166463 0.323988 0.104209 0.417675 0.0621084 0.520798C0.0200079 0.623922 -0.00109237 0.73441 4.35406e-05 0.845791C0.00117945 0.957171 0.0245284 1.06721 0.0687233 1.16945C0.112918 1.27169 0.17707 1.36409 0.257423 1.44123L3.82827 5.01207L0.257423 8.58292C0.10569 8.74097 0.0219572 8.9522 0.0241915 9.17129C0.0264258 9.39037 0.114449 9.59985 0.269373 9.75478C0.424297 9.9097 0.633777 9.99772 0.852862 9.99996C1.07195 10.0022 1.28318 9.91846 1.44123 9.76673L5.01207 6.19588L8.58292 9.76673C8.74097 9.91846 8.9522 10.0022 9.17129 9.99996C9.39037 9.99772 9.59985 9.9097 9.75478 9.75478C9.9097 9.59985 9.99772 9.39037 9.99996 9.17129C10.0022 8.9522 9.91846 8.74097 9.76673 8.58292L6.19486 5.01207Z" fill="#EB5757"/>
</svg>
