<svg width="2" height="3" viewBox="0 0 2 3" fill="none" xmlns="http://www.w3.org/2000/svg">
<path d="M1.40479 0.112473C1.39616 0.109795 1.38782 0.106223 1.3783 0.106223H0.466873C0.443961 0.106223 0.423727 0.116043 0.406171 0.130029C0.176751 0.241614 0 0.708785 0 1.44674C0 2.11327 0.183297 2.59829 0.376712 2.75541C0.394565 2.79111 0.460029 2.8176 0.499307 2.8176L1.36283 2.81611C1.26047 2.55158 1.19143 2.06655 1.19143 1.51101C1.19143 0.882262 1.27921 0.342785 1.40479 0.112473Z" fill="url(#paint0_linear_2_452)"/>
<path d="M1.35416 2.81368C1.61217 2.81368 1.82133 2.20832 1.82133 1.46156C1.82133 0.714809 1.61217 0.109446 1.35416 0.109446C1.09615 0.109446 0.886986 0.714809 0.886986 1.46156C0.886986 2.20832 1.09615 2.81368 1.35416 2.81368Z" fill="url(#paint1_linear_2_452)"/>
<path opacity="0.0625" d="M1.17454 3.00001C1.55893 3.00001 1.87054 2.32843 1.87054 1.5C1.87054 0.671575 1.55893 0 1.17454 0C0.790155 0 0.478547 0.671575 0.478547 1.5C0.478547 2.32843 0.790155 3.00001 1.17454 3.00001Z" fill="url(#paint2_linear_2_452)"/>
<path opacity="0.125" d="M1.18409 2.98469C1.56108 2.98469 1.86669 2.31938 1.86669 1.49867C1.86669 0.677967 1.56108 0.0126545 1.18409 0.0126545C0.807094 0.0126545 0.501481 0.677967 0.501481 1.49867C0.501481 2.31938 0.807094 2.98469 1.18409 2.98469Z" fill="url(#paint3_linear_2_452)"/>
<path opacity="0.1875" d="M1.19348 2.96941C1.56307 2.96941 1.86269 2.31036 1.86269 1.49738C1.86269 0.684394 1.56307 0.0253429 1.19348 0.0253429C0.823881 0.0253429 0.524263 0.684394 0.524263 1.49738C0.524263 2.31036 0.823881 2.96941 1.19348 2.96941Z" fill="url(#paint4_linear_2_452)"/>
<path opacity="0.25" d="M1.20262 2.95438C1.56466 2.95438 1.85815 2.30146 1.85815 1.49604C1.85815 0.690616 1.56466 0.0376921 1.20262 0.0376921C0.840585 0.0376921 0.547095 0.690616 0.547095 1.49604C0.547095 2.30146 0.840585 2.95438 1.20262 2.95438Z" fill="url(#paint5_linear_2_452)"/>
<path opacity="0.3125" d="M1.2123 2.93924C1.56694 2.93924 1.85444 2.29257 1.85444 1.49488C1.85444 0.697177 1.56694 0.0505162 1.2123 0.0505162C0.857659 0.0505162 0.570165 0.697177 0.570165 1.49488C0.570165 2.29257 0.857659 2.93924 1.2123 2.93924Z" fill="url(#paint6_linear_2_452)"/>
<path opacity="0.375" d="M1.22201 2.92409C1.56909 2.92409 1.85045 2.28369 1.85045 1.49372C1.85045 0.703741 1.56909 0.0633404 1.22201 0.0633404C0.874923 0.0633404 0.593557 0.703741 0.593557 1.49372C0.593557 2.28369 0.874923 2.92409 1.22201 2.92409Z" fill="url(#paint7_linear_2_452)"/>
<path opacity="0.4375" d="M1.23135 2.90894C1.57103 2.90894 1.8464 2.27481 1.8464 1.49255C1.8464 0.710304 1.57103 0.0761645 1.23135 0.0761645C0.891659 0.0761645 0.616288 0.710304 0.616288 1.49255C0.616288 2.27481 0.891659 2.90894 1.23135 2.90894Z" fill="url(#paint8_linear_2_452)"/>
<path opacity="0.5" d="M1.24041 2.89366C1.57253 2.89366 1.84178 2.26578 1.84178 1.49126C1.84178 0.71673 1.57253 0.088853 1.24041 0.088853C0.908279 0.088853 0.639036 0.71673 0.639036 1.49126C0.639036 2.26578 0.908279 2.89366 1.24041 2.89366Z" fill="url(#paint9_linear_2_452)"/>
<path opacity="0.5625" d="M1.25009 2.8788C1.57482 2.8788 1.83807 2.25706 1.83807 1.49009C1.83807 0.723121 1.57482 0.101372 1.25009 0.101372C0.925353 0.101372 0.662105 0.723121 0.662105 1.49009C0.662105 2.25706 0.925353 2.8788 1.25009 2.8788Z" fill="url(#paint10_linear_2_452)"/>
<path opacity="0.625" d="M1.25943 2.86349C1.57676 2.86349 1.83402 2.248 1.83402 1.48876C1.83402 0.729515 1.57676 0.114026 1.25943 0.114026C0.942089 0.114026 0.684836 0.729515 0.684836 1.48876C0.684836 2.248 0.942089 2.86349 1.25943 2.86349Z" fill="url(#paint11_linear_2_452)"/>
<path opacity="0.6875" d="M1.26881 2.84821C1.57859 2.84821 1.82971 2.23898 1.82971 1.48746C1.82971 0.735943 1.57859 0.126715 1.26881 0.126715C0.959031 0.126715 0.707906 0.735943 0.707906 1.48746C0.707906 2.23898 0.959031 2.84821 1.26881 2.84821Z" fill="url(#paint12_linear_2_452)"/>
<path opacity="0.75" d="M1.27817 2.83306C1.58055 2.83306 1.82568 2.2301 1.82568 1.4863C1.82568 0.742504 1.58055 0.139539 1.27817 0.139539C0.975783 0.139539 0.730654 0.742504 0.730654 1.4863C0.730654 2.2301 0.975783 2.83306 1.27817 2.83306Z" fill="url(#paint13_linear_2_452)"/>
<path opacity="0.8125" d="M1.28787 2.81791C1.58269 2.81791 1.82169 2.22121 1.82169 1.48514C1.82169 0.749068 1.58269 0.152363 1.28787 0.152363C0.993047 0.152363 0.754046 0.749068 0.754046 1.48514C0.754046 2.22121 0.993047 2.81791 1.28787 2.81791Z" fill="url(#paint14_linear_2_452)"/>
<path opacity="0.875" d="M1.29755 2.80263C1.58498 2.80263 1.81798 2.21219 1.81798 1.48384C1.81798 0.755493 1.58498 0.165051 1.29755 0.165051C1.01012 0.165051 0.777116 0.755493 0.777116 1.48384C0.777116 2.21219 1.01012 2.80263 1.29755 2.80263Z" fill="url(#paint15_linear_2_452)"/>
<path opacity="0.9375" d="M1.30689 2.78774C1.58692 2.78774 1.81393 2.20342 1.81393 1.48264C1.81393 0.761849 1.58692 0.177536 1.30689 0.177536C1.02686 0.177536 0.799846 0.761849 0.799846 1.48264C0.799846 2.20342 1.02686 2.78774 1.30689 2.78774Z" fill="url(#paint16_linear_2_452)"/>
<path d="M1.31595 2.77246C1.58842 2.77246 1.80931 2.1944 1.80931 1.48134C1.80931 0.768276 1.58842 0.190225 1.31595 0.190225C1.04348 0.190225 0.822594 0.768276 0.822594 1.48134C0.822594 2.1944 1.04348 2.77246 1.31595 2.77246Z" fill="url(#paint17_linear_2_452)"/>
<defs>
<linearGradient id="paint0_linear_2_452" x1="0.781514" y1="-0.0415752" x2="0.62586" y2="3.26177" gradientUnits="userSpaceOnUse">
<stop stop-color="#383838"/>
<stop offset="0.0357" stop-color="#4B4B4B"/>
<stop offset="0.1078" stop-color="#7B7B7B"/>
<stop offset="0.2088" stop-color="#C7C7C7"/>
<stop offset="0.2181" stop-color="#CFCFCF"/>
<stop offset="0.2786" stop-color="#B6B6B6"/>
<stop offset="0.3777" stop-color="#878787"/>
<stop offset="0.462" stop-color="#636363"/>
<stop offset="0.5633" stop-color="#3E3E3E"/>
<stop offset="0.6452" stop-color="#272727"/>
<stop offset="0.6968" stop-color="#1F1F1F"/>
<stop offset="0.748" stop-color="#232323"/>
<stop offset="0.8076" stop-color="#323232"/>
<stop offset="0.8714" stop-color="#494949"/>
<stop offset="0.9376" stop-color="#696969"/>
<stop offset="1" stop-color="#8F8F8F"/>
</linearGradient>
<linearGradient id="paint1_linear_2_452" x1="2.77058" y1="2.66936" x2="0.0985393" y2="0.391563" gradientUnits="userSpaceOnUse">
<stop stop-color="#383838"/>
<stop offset="4.90505e-05" stop-color="#3B3B3B"/>
<stop offset="0.0011" stop-color="#737373"/>
<stop offset="0.0021" stop-color="#A1A1A1"/>
<stop offset="0.003" stop-color="#C6C6C6"/>
<stop offset="0.0039" stop-color="#E0E0E0"/>
<stop offset="0.0047" stop-color="#EFEFEF"/>
<stop offset="0.0053" stop-color="#F5F5F5"/>
<stop offset="0.0328" stop-color="#DDDDDD"/>
<stop offset="0.0908" stop-color="#9F9F9F"/>
<stop offset="0.1117" stop-color="#878787"/>
<stop offset="0.6968" stop-color="#1F1F1F"/>
<stop offset="0.748" stop-color="#232323"/>
<stop offset="0.8076" stop-color="#323232"/>
<stop offset="0.8714" stop-color="#494949"/>
<stop offset="0.9376" stop-color="#696969"/>
<stop offset="1" stop-color="#8F8F8F"/>
</linearGradient>
<linearGradient id="paint2_linear_2_452" x1="2.83321" y1="2.91378" x2="-0.295052" y2="0.247065" gradientUnits="userSpaceOnUse">
<stop stop-color="#E9E9E9"/>
<stop offset="0.081" stop-color="#EFEFEF"/>
<stop offset="0.2181" stop-color="#F5F5F5"/>
<stop offset="0.4468" stop-color="#EEEEEE"/>
<stop offset="0.6968" stop-color="#EEEEEE"/>
<stop offset="1" stop-color="#EEEEEE"/>
</linearGradient>
<linearGradient id="paint3_linear_2_452" x1="2.82344" y1="2.89599" x2="-0.268547" y2="0.260196" gradientUnits="userSpaceOnUse">
<stop stop-color="#DDDDDD"/>
<stop offset="0.0141" stop-color="#E0E0E0"/>
<stop offset="0.128" stop-color="#EFEFEF"/>
<stop offset="0.2181" stop-color="#F5F5F5"/>
<stop offset="0.4468" stop-color="#E7E7E7"/>
<stop offset="0.6968" stop-color="#E7E7E7"/>
<stop offset="1" stop-color="#E8E8E8"/>
</linearGradient>
<linearGradient id="paint4_linear_2_452" x1="2.81355" y1="2.87827" x2="-0.242252" y2="0.273358" gradientUnits="userSpaceOnUse">
<stop stop-color="#D1D1D1"/>
<stop offset="0.0585" stop-color="#E0E0E0"/>
<stop offset="0.1476" stop-color="#EFEFEF"/>
<stop offset="0.2181" stop-color="#F5F5F5"/>
<stop offset="0.4468" stop-color="#E0E0E0"/>
<stop offset="0.6968" stop-color="#E0E0E0"/>
<stop offset="1" stop-color="#E2E2E2"/>
</linearGradient>
<linearGradient id="paint5_linear_2_452" x1="2.80374" y1="2.86083" x2="-0.215908" y2="0.286719" gradientUnits="userSpaceOnUse">
<stop stop-color="#C6C6C6"/>
<stop offset="0.000655729" stop-color="#C6C6C6"/>
<stop offset="0.0839" stop-color="#E0E0E0"/>
<stop offset="0.1589" stop-color="#EFEFEF"/>
<stop offset="0.2181" stop-color="#F5F5F5"/>
<stop offset="0.4214" stop-color="#DDDDDD"/>
<stop offset="0.4468" stop-color="#D9D9D9"/>
<stop offset="0.6968" stop-color="#D9D9D9"/>
<stop offset="1" stop-color="#DBDBDB"/>
</linearGradient>
<linearGradient id="paint6_linear_2_452" x1="2.79419" y1="2.84333" x2="-0.189359" y2="0.299961" gradientUnits="userSpaceOnUse">
<stop stop-color="#BABABA"/>
<stop offset="0.0282" stop-color="#C6C6C6"/>
<stop offset="0.1008" stop-color="#E0E0E0"/>
<stop offset="0.1663" stop-color="#EFEFEF"/>
<stop offset="0.2181" stop-color="#F5F5F5"/>
<stop offset="0.3846" stop-color="#DDDDDD"/>
<stop offset="0.4468" stop-color="#D3D3D3"/>
<stop offset="0.6968" stop-color="#D2D2D2"/>
<stop offset="1" stop-color="#D5D5D5"/>
</linearGradient>
<linearGradient id="paint7_linear_2_452" x1="2.78471" y1="2.82584" x2="-0.162812" y2="0.313171" gradientUnits="userSpaceOnUse">
<stop stop-color="#AEAEAE"/>
<stop offset="0.048" stop-color="#C6C6C6"/>
<stop offset="0.1131" stop-color="#E0E0E0"/>
<stop offset="0.1718" stop-color="#EFEFEF"/>
<stop offset="0.2181" stop-color="#F5F5F5"/>
<stop offset="0.3596" stop-color="#DDDDDD"/>
<stop offset="0.4468" stop-color="#CCCCCC"/>
<stop offset="0.6968" stop-color="#CBCBCB"/>
<stop offset="1" stop-color="#CFCFCF"/>
</linearGradient>
<linearGradient id="paint8_linear_2_452" x1="2.77491" y1="2.80837" x2="-0.136688" y2="0.326352" gradientUnits="userSpaceOnUse">
<stop stop-color="#A2A2A2"/>
<stop offset="0.0629" stop-color="#C6C6C6"/>
<stop offset="0.1224" stop-color="#E0E0E0"/>
<stop offset="0.1759" stop-color="#EFEFEF"/>
<stop offset="0.2181" stop-color="#F5F5F5"/>
<stop offset="0.3414" stop-color="#DDDDDD"/>
<stop offset="0.4468" stop-color="#C5C5C5"/>
<stop offset="0.6968" stop-color="#C4C4C4"/>
<stop offset="1" stop-color="#C8C8C8"/>
</linearGradient>
<linearGradient id="paint9_linear_2_452" x1="2.76517" y1="2.7908" x2="-0.11055" y2="0.339399" gradientUnits="userSpaceOnUse">
<stop stop-color="#969696"/>
<stop offset="0.0164" stop-color="#A2A2A2"/>
<stop offset="0.0749" stop-color="#C6C6C6"/>
<stop offset="0.1298" stop-color="#E0E0E0"/>
<stop offset="0.1792" stop-color="#EFEFEF"/>
<stop offset="0.2181" stop-color="#F5F5F5"/>
<stop offset="0.3278" stop-color="#DDDDDD"/>
<stop offset="0.4468" stop-color="#BEBEBE"/>
<stop offset="0.6968" stop-color="#BDBDBD"/>
<stop offset="0.9909" stop-color="#C2C2C2"/>
<stop offset="1" stop-color="#C2C2C2"/>
</linearGradient>
<linearGradient id="paint10_linear_2_452" x1="2.75577" y1="2.77341" x2="-0.0841474" y2="0.352513" gradientUnits="userSpaceOnUse">
<stop stop-color="#8B8B8B"/>
<stop offset="0.0303" stop-color="#A2A2A2"/>
<stop offset="0.0848" stop-color="#C6C6C6"/>
<stop offset="0.1359" stop-color="#E0E0E0"/>
<stop offset="0.1818" stop-color="#EFEFEF"/>
<stop offset="0.2181" stop-color="#F5F5F5"/>
<stop offset="0.3169" stop-color="#DDDDDD"/>
<stop offset="0.4468" stop-color="#B7B7B7"/>
<stop offset="0.6968" stop-color="#B6B6B6"/>
<stop offset="0.972" stop-color="#BBBBBB"/>
<stop offset="1" stop-color="#BBBBBB"/>
</linearGradient>
<linearGradient id="paint11_linear_2_452" x1="2.74607" y1="2.75586" x2="-0.0581157" y2="0.365438" gradientUnits="userSpaceOnUse">
<stop stop-color="#7F7F7F"/>
<stop offset="0.0419" stop-color="#A2A2A2"/>
<stop offset="0.093" stop-color="#C6C6C6"/>
<stop offset="0.141" stop-color="#E0E0E0"/>
<stop offset="0.1841" stop-color="#EFEFEF"/>
<stop offset="0.2181" stop-color="#F5F5F5"/>
<stop offset="0.308" stop-color="#DDDDDD"/>
<stop offset="0.4468" stop-color="#B0B0B0"/>
<stop offset="0.6968" stop-color="#AFAFAF"/>
<stop offset="0.9561" stop-color="#B4B4B4"/>
<stop offset="1" stop-color="#B5B5B5"/>
</linearGradient>
<linearGradient id="paint12_linear_2_452" x1="2.73647" y1="2.7387" x2="-0.0320692" y2="0.37866" gradientUnits="userSpaceOnUse">
<stop stop-color="#737373"/>
<stop offset="0.000506787" stop-color="#747474"/>
<stop offset="0.0513" stop-color="#A2A2A2"/>
<stop offset="0.1" stop-color="#C6C6C6"/>
<stop offset="0.1453" stop-color="#E0E0E0"/>
<stop offset="0.186" stop-color="#EFEFEF"/>
<stop offset="0.2181" stop-color="#F5F5F5"/>
<stop offset="0.3007" stop-color="#DDDDDD"/>
<stop offset="0.4468" stop-color="#A9A9A9"/>
<stop offset="0.6968" stop-color="#A8A8A8"/>
<stop offset="0.9425" stop-color="#ACACAC"/>
<stop offset="1" stop-color="#AFAFAF"/>
</linearGradient>
<linearGradient id="paint13_linear_2_452" x1="2.72717" y1="2.72142" x2="-0.00578038" y2="0.391693" gradientUnits="userSpaceOnUse">
<stop stop-color="#676767"/>
<stop offset="0.0117" stop-color="#747474"/>
<stop offset="0.0599" stop-color="#A2A2A2"/>
<stop offset="0.1061" stop-color="#C6C6C6"/>
<stop offset="0.149" stop-color="#E0E0E0"/>
<stop offset="0.1876" stop-color="#EFEFEF"/>
<stop offset="0.2181" stop-color="#F5F5F5"/>
<stop offset="0.2946" stop-color="#DDDDDD"/>
<stop offset="0.4468" stop-color="#A3A3A3"/>
<stop offset="0.6968" stop-color="#A1A1A1"/>
<stop offset="0.9306" stop-color="#A5A5A5"/>
<stop offset="1" stop-color="#A8A8A8"/>
</linearGradient>
<linearGradient id="paint14_linear_2_452" x1="2.71798" y1="2.70416" x2="0.0204986" y2="0.404695" gradientUnits="userSpaceOnUse">
<stop stop-color="#5B5B5B"/>
<stop offset="0.0214" stop-color="#747474"/>
<stop offset="0.0674" stop-color="#A1A1A1"/>
<stop offset="0.1114" stop-color="#C6C6C6"/>
<stop offset="0.1523" stop-color="#E0E0E0"/>
<stop offset="0.1891" stop-color="#EFEFEF"/>
<stop offset="0.2181" stop-color="#F5F5F5"/>
<stop offset="0.2893" stop-color="#DDDDDD"/>
<stop offset="0.4392" stop-color="#9F9F9F"/>
<stop offset="0.4468" stop-color="#9C9C9C"/>
<stop offset="0.6968" stop-color="#9A9A9A"/>
<stop offset="0.9203" stop-color="#9E9E9E"/>
<stop offset="1" stop-color="#A2A2A2"/>
</linearGradient>
<linearGradient id="paint15_linear_2_452" x1="2.70879" y1="2.68682" x2="0.046723" y2="0.417502" gradientUnits="userSpaceOnUse">
<stop stop-color="#505050"/>
<stop offset="0.0301" stop-color="#747474"/>
<stop offset="0.074" stop-color="#A1A1A1"/>
<stop offset="0.116" stop-color="#C6C6C6"/>
<stop offset="0.1552" stop-color="#E0E0E0"/>
<stop offset="0.1903" stop-color="#EFEFEF"/>
<stop offset="0.2181" stop-color="#F5F5F5"/>
<stop offset="0.2847" stop-color="#DDDDDD"/>
<stop offset="0.425" stop-color="#9F9F9F"/>
<stop offset="0.4468" stop-color="#959595"/>
<stop offset="0.6968" stop-color="#939393"/>
<stop offset="0.9111" stop-color="#979797"/>
<stop offset="1" stop-color="#9C9C9C"/>
</linearGradient>
<linearGradient id="paint16_linear_2_452" x1="2.69933" y1="2.66961" x2="0.072579" y2="0.430402" gradientUnits="userSpaceOnUse">
<stop stop-color="#444444"/>
<stop offset="0.0378" stop-color="#747474"/>
<stop offset="0.0798" stop-color="#A1A1A1"/>
<stop offset="0.1202" stop-color="#C6C6C6"/>
<stop offset="0.1578" stop-color="#E0E0E0"/>
<stop offset="0.1915" stop-color="#EFEFEF"/>
<stop offset="0.2181" stop-color="#F5F5F5"/>
<stop offset="0.2808" stop-color="#DDDDDD"/>
<stop offset="0.4127" stop-color="#9F9F9F"/>
<stop offset="0.4468" stop-color="#8E8E8E"/>
<stop offset="0.6968" stop-color="#8C8C8C"/>
<stop offset="0.9029" stop-color="#909090"/>
<stop offset="1" stop-color="#959595"/>
</linearGradient>
<linearGradient id="paint17_linear_2_452" x1="2.68994" y1="2.65233" x2="0.0983898" y2="0.443152" gradientUnits="userSpaceOnUse">
<stop stop-color="#383838"/>
<stop offset="0.002" stop-color="#3B3B3B"/>
<stop offset="0.0442" stop-color="#737373"/>
<stop offset="0.0851" stop-color="#A1A1A1"/>
<stop offset="0.1239" stop-color="#C6C6C6"/>
<stop offset="0.1601" stop-color="#E0E0E0"/>
<stop offset="0.1925" stop-color="#EFEFEF"/>
<stop offset="0.2181" stop-color="#F5F5F5"/>
<stop offset="0.2773" stop-color="#DDDDDD"/>
<stop offset="0.4018" stop-color="#9F9F9F"/>
<stop offset="0.4468" stop-color="#878787"/>
<stop offset="0.6968" stop-color="#858585"/>
<stop offset="0.8955" stop-color="#898989"/>
<stop offset="1" stop-color="#8F8F8F"/>
</linearGradient>
</defs>
</svg>
