<svg width="18" height="16" viewBox="0 0 18 16" fill="none" xmlns="http://www.w3.org/2000/svg">
<path d="M8.98497 15.2335C8.98497 15.2335 0.766498 10.6304 0.766498 5.04085C0.766498 4.05272 1.10879 3.09512 1.73514 2.33096C2.3615 1.5668 3.23321 1.0433 4.20198 0.849509C5.17075 0.655722 6.17672 0.803626 7.04875 1.26806C7.92078 1.73249 8.60499 2.48475 8.98497 3.39687C9.36495 2.48475 10.0492 1.73249 10.9212 1.26806C11.7932 0.803626 12.7992 0.655722 13.768 0.849509C14.7367 1.0433 15.6084 1.5668 16.2348 2.33096C16.8611 3.09512 17.2034 4.05272 17.2034 5.04085C17.2034 10.6304 8.98497 15.2335 8.98497 15.2335Z" fill="white" fill-opacity="0.5" stroke="#FF5B3F" stroke-width="1.5" stroke-linecap="round" stroke-linejoin="round"/>
</svg>
