<svg width="9" height="14" viewBox="0 0 9 14" fill="none" xmlns="http://www.w3.org/2000/svg">
<path d="M7.17122 0.25333L0.291018 6.36378C0.199005 6.44549 0.125797 6.54356 0.0757876 6.65209C0.0257784 6.76062 0 6.87738 0 6.99535C0 7.11333 0.0257784 7.23009 0.0757876 7.33862C0.125797 7.44715 0.199005 7.54522 0.291018 7.62693L7.1749 13.7374C7.38515 13.9143 7.66176 14.0083 7.94585 13.9994C8.22993 13.9906 8.49906 13.8795 8.69594 13.6899C8.89282 13.5003 9.0019 13.2471 8.99997 12.9843C8.99805 12.7214 8.88526 12.4696 8.68562 12.2825L2.91695 7.16532C2.89185 7.14351 2.87184 7.11718 2.85817 7.08795C2.84449 7.05872 2.83743 7.0272 2.83743 6.99535C2.83743 6.9635 2.84449 6.93199 2.85817 6.90276C2.87184 6.87353 2.89185 6.8472 2.91695 6.82539L8.68194 1.70684C8.87672 1.51882 8.98535 1.26845 8.98512 1.00807C8.98489 0.747691 8.87582 0.497479 8.68071 0.309756C8.4856 0.122034 8.21956 0.0113403 7.93823 0.000823986C7.65691 -0.00969231 7.38208 0.0807834 7.17122 0.25333Z" fill="white"/>
</svg>
